<svg version="1.0" xmlns="http://www.w3.org/2000/svg"
 fill="#cf9a71" width="512.000000pt" height="512.000000pt" viewBox="0 0 512.000000 512.000000"
 preserveAspectRatio="xMidYMid meet">

<g transform="translate(0.000000,512.000000) scale(0.100000,-0.100000)" stroke="none">
<path d="M1411 5104 c-216 -58 -361 -245 -361 -463 0 -195 102 -355 277 -439
77 -37 79 -37 204 -37 l125 0 79 39 c211 104 317 330 260 551 -67 257 -334
416 -584 349z"/>
<path d="M3655 4263 c-132 -17 -271 -107 -344 -221 -113 -179 -91 -430 51
-578 l39 -40 -22 -20 c-37 -33 -40 -49 -23 -112 16 -58 16 -58 100 -106 46
-26 84 -52 84 -58 0 -5 -45 -86 -101 -180 -81 -137 -99 -175 -94 -196 8 -34
15 -26 110 138 129 222 125 217 141 195 8 -10 14 -30 14 -44 0 -14 -47 -107
-105 -208 -58 -100 -105 -189 -105 -198 0 -9 7 -29 15 -45 15 -29 18 -30 89
-30 l73 0 84 144 84 143 385 409 c212 225 405 431 429 457 l44 48 -42 43 -42
42 20 45 c41 89 21 137 -102 251 -109 101 -122 108 -182 108 -58 0 -77 -10
-142 -73 l-52 -50 -39 31 c-102 81 -243 122 -367 105z m718 -150 c40 -37 73
-72 74 -78 1 -5 -163 -181 -366 -390 -273 -281 -366 -383 -359 -392 6 -7 14
-13 18 -13 5 0 174 172 377 381 l368 381 3 -37 c2 -21 -3 -46 -11 -58 -21 -30
-786 -841 -798 -845 -5 -2 -9 5 -9 15 0 44 -48 89 -169 157 -120 68 -120 69
-103 90 35 44 803 855 815 860 7 3 29 4 50 2 32 -4 52 -17 110 -73z"/>
<path d="M1010 4119 c-64 -12 -159 -61 -215 -111 -105 -92 -170 -230 -244
-519 -51 -200 -66 -320 -65 -554 1 -305 23 -449 88 -559 34 -58 93 -114 151
-143 28 -14 52 -27 54 -29 2 -1 38 -153 82 -336 l78 -333 -135 -605 c-105
-467 -135 -617 -132 -656 15 -183 223 -298 386 -215 48 24 113 96 129 142 23
67 293 1295 293 1335 0 22 -45 231 -100 465 -72 304 -104 457 -111 539 -14
142 -5 350 21 535 11 77 20 143 20 147 0 4 -80 75 -178 158 -187 157 -217 194
-228 272 -23 168 165 301 315 224 15 -8 72 -52 127 -98 l99 -83 342 -88 341
-88 117 12 c175 18 344 -6 404 -57 l30 -25 67 31 c36 18 103 39 148 49 l83 16
-8 29 c-12 43 -66 93 -118 110 -25 8 -316 85 -646 170 -1184 306 -1092 285
-1195 265z"/>
<path d="M1055 3836 c-60 -27 -105 -94 -105 -156 0 -78 17 -96 348 -377 173
-147 327 -276 341 -285 53 -36 96 -33 228 16 67 25 169 58 225 74 96 25 117
27 298 27 188 0 196 1 228 23 101 73 91 233 -19 289 -91 46 -290 53 -483 17
-96 -18 -237 -57 -306 -84 l-49 -19 -261 222 c-144 122 -279 232 -302 245 -46
25 -98 28 -143 8z"/>
<path d="M2910 3484 c-47 -9 -125 -36 -161 -56 l-37 -21 15 -35 c35 -83 -8
-206 -89 -260 -38 -24 -51 -27 -132 -27 l-90 0 -63 -95 c-125 -186 -242 -460
-309 -725 -35 -137 -31 -260 11 -353 33 -75 102 -141 195 -191 35 -19 239 -94
453 -168 215 -73 392 -135 395 -137 2 -3 -137 -178 -310 -390 -172 -212 -324
-406 -338 -432 -33 -64 -34 -159 -1 -226 42 -87 150 -158 241 -158 54 0 132
31 173 70 55 50 906 1099 932 1147 27 52 33 160 11 218 -21 53 -78 114 -129
139 -21 9 -203 74 -405 143 -202 69 -393 134 -424 145 l-56 19 10 32 c6 18 49
106 94 196 l83 164 -121 266 c-130 285 -144 337 -118 416 26 78 122 145 206
145 110 0 175 -62 253 -238 30 -68 57 -125 62 -127 4 -3 18 21 30 52 33 87 38
229 9 305 -26 70 -88 128 -167 158 -54 20 -175 33 -223 24z"/>
<path d="M2875 3244 c-67 -35 -95 -79 -95 -152 0 -43 25 -104 180 -448 156
-345 186 -404 220 -435 23 -21 40 -46 40 -58 0 -27 -9 -27 -55 4 -20 15 -38
25 -40 23 -1 -2 -17 -29 -35 -62 -24 -42 -29 -60 -21 -66 7 -4 49 -20 93 -35
71 -25 82 -26 89 -13 8 14 13 14 46 -3 20 -10 52 -19 70 -19 28 0 33 -3 33
-25 l0 -25 203 -2 202 -3 32 -90 c38 -108 38 -111 14 -118 -20 -5 -20 -5 0
-56 10 -28 19 -76 19 -107 0 -53 1 -55 23 -48 12 4 28 7 36 8 10 1 69 -159
203 -553 103 -305 186 -556 184 -559 -6 -5 -646 440 -646 450 0 4 60 84 133
176 85 107 136 181 141 202 12 64 -33 147 -89 164 -15 4 -24 -1 -35 -21 -15
-27 -15 -28 15 -43 36 -18 53 -59 39 -96 -5 -14 -173 -232 -373 -485 -263
-332 -370 -461 -388 -466 -39 -9 -76 8 -94 45 l-17 33 -21 -27 c-25 -32 -25
-33 -5 -62 34 -49 125 -68 184 -37 20 10 267 310 365 443 1 1 218 -147 481
-330 530 -368 528 -367 592 -313 18 15 34 40 37 58 5 25 -57 220 -294 920
-166 489 -301 895 -301 903 0 11 28 14 150 14 l150 0 0 25 c0 17 6 25 17 25 9
0 36 9 59 21 32 15 48 32 65 65 35 73 13 144 -57 186 -19 11 -31 24 -28 29 12
20 5 99 -12 134 -9 20 -35 49 -57 63 l-41 27 -445 5 -445 5 -150 332 c-83 182
-162 344 -176 359 -49 52 -135 69 -195 38z m1529 -1055 c34 -27 36 -82 4 -116
l-21 -23 -529 0 -529 0 -24 25 c-40 39 -31 96 20 123 14 8 182 11 536 12 507
0 517 0 543 -21z"/>
<path d="M3018 2234 c-21 -36 -38 -70 -38 -74 0 -8 31 -23 35 -18 1 2 17 29
34 60 27 47 30 61 21 77 -6 12 -12 21 -13 21 -1 0 -19 -30 -39 -66z"/>
<path d="M1872 2017 c-49 -15 -86 -65 -121 -163 -46 -128 -55 -165 -47 -207 9
-50 57 -102 109 -120 24 -8 41 -20 41 -28 -1 -8 -90 -319 -198 -691 -108 -372
-196 -691 -196 -708 0 -23 10 -42 34 -66 44 -44 92 -46 136 -6 28 24 40 58
121 337 50 170 91 310 92 311 1 0 202 82 446 180 l444 179 73 90 c40 49 71 91
70 93 -2 1 -239 86 -527 187 -287 102 -533 192 -545 200 -22 14 -50 75 -35 75
4 0 227 -79 494 -175 268 -96 491 -175 496 -175 8 0 25 30 19 35 -2 1 -226 82
-498 180 -272 97 -497 179 -499 181 -11 11 56 181 82 207 24 25 34 28 73 25
l46 -3 -6 29 c-10 47 -36 55 -104 33z m623 -732 c134 -47 147 -54 125 -63
-413 -169 -694 -281 -697 -278 -2 2 28 112 67 245 38 133 70 244 70 246 0 2
64 -18 143 -46 78 -28 210 -75 292 -104z"/>
</g>
</svg>
